<svg width="48" height="48" viewBox="0 0 48 48" fill="none" xmlns="http://www.w3.org/2000/svg">
<path d="M33.9187 3.85314C33.3844 3.66095 32.7656 3.49782 32.2406 3.5297C30.9 3.62532 28.7812 5.33532 27.15 7.15407C26.2406 8.16001 25.575 9.03095 25.0781 9.72189C25.8937 9.91876 26.6156 10.1906 27.3187 10.4438C28.4062 8.99345 29.775 7.25157 31.7062 6.6422C32.8406 6.29064 34.1531 6.43595 35.3906 7.26189C36.5625 8.0447 37.7156 9.41251 38.925 11.4844C40.4812 11.7563 41.55 11.8313 41.8594 10.2938C41.5406 9.91876 40.3219 8.4872 38.5406 6.89251C37.0969 5.60626 35.3812 4.41095 33.9187 3.85314ZM13.8094 8.9372C12.7594 9.35907 11.9156 10.0781 11.3812 11.2781C7.13436 20.8313 5.92967 27.9375 6.16779 32.6438C6.28217 34.9969 6.76217 36.7406 7.36873 37.8844C8.04186 38.9813 8.52373 39.5156 9.63748 39.7031C9.33936 37.5469 9.56248 35.4 9.85311 33.375L11.0812 35.4375C10.9969 37.1156 10.7531 38.3344 11.4656 39.8625C12.4031 41.5781 14.5875 43.0313 16.7344 43.5938C17.8031 43.8844 18.8625 43.9594 19.6969 43.8C21.3656 43.4438 22.9219 41.1094 23.4187 40.275L25.4437 39.5531C24.5156 41.0813 23.6156 42.6281 22.7156 43.95C22.875 44.0156 23.0437 44.0813 23.2031 44.1656C24.075 44.55 24.8812 44.5875 25.8656 44.1844C26.8312 43.7813 27.975 42.8906 29.2594 41.3438C31.8187 38.2406 34.9031 32.6063 38.6344 23.7188C40.0687 20.2969 38.775 17.775 36.7406 16.2C35.8875 15.5813 35.0625 15.1406 34.1062 14.9063C34.65 17.3719 34.05 19.9313 33.525 22.0688L32.0812 20.3906C32.2687 18.9844 33.1312 16.0313 32.1281 15.1406C29.5406 13.0969 25.3406 11.1 21.9375 11.0063C20.5687 10.9969 19.5937 11.325 19.0219 12.1031C18.4125 12.9563 17.8125 13.9219 17.25 14.9719L14.8687 15.9844C15.9656 13.9594 17.8312 10.1531 20.0156 9.49689C18.1125 8.55282 15.7031 8.2097 13.8094 8.9372Z" fill="white"/>
</svg>
