<svg width="48" height="48" viewBox="0 0 48 48" fill="none" xmlns="http://www.w3.org/2000/svg">
<path d="M29.9505 11.919C30.2263 11.919 30.4993 11.8647 30.7541 11.7591C31.0089 11.6536 31.2404 11.4989 31.4354 11.3039C31.6304 11.1089 31.7851 10.8774 31.8906 10.6226C31.9962 10.3678 32.0505 10.0948 32.0505 9.81899C32.0505 9.54322 31.9962 9.27014 31.8906 9.01536C31.7851 8.76058 31.6304 8.52907 31.4354 8.33407C31.2404 8.13907 31.0089 7.98438 30.7541 7.87885C30.4993 7.77331 30.2263 7.71899 29.9505 7.71899C29.3935 7.71899 28.8594 7.94024 28.4656 8.33407C28.0717 8.7279 27.8505 9.26204 27.8505 9.81899C27.8505 10.3759 28.0717 10.9101 28.4656 11.3039C28.8594 11.6977 29.3935 11.919 29.9505 11.919ZM30.4905 20.244C30.4905 20.972 30.2013 21.6702 29.6865 22.185C29.1717 22.6998 28.4735 22.989 27.7455 22.989C27.0175 22.989 26.3193 22.6998 25.8045 22.185C25.2897 21.6702 25.0005 20.972 25.0005 20.244C25.0005 19.516 25.2897 18.8178 25.8045 18.303C26.3193 17.7882 27.0175 17.499 27.7455 17.499C28.4735 17.499 29.1717 17.7882 29.6865 18.303C30.2013 18.8178 30.4905 19.516 30.4905 20.244ZM17.5155 28.509C17.5155 29.1773 17.25 29.8183 16.7774 30.2909C16.3048 30.7635 15.6638 31.029 14.9955 31.029C14.3271 31.029 13.6862 30.7635 13.2136 30.2909C12.741 29.8183 12.4755 29.1773 12.4755 28.509C12.4755 27.8406 12.741 27.1997 13.2136 26.7271C13.6862 26.2545 14.3271 25.989 14.9955 25.989C15.6638 25.989 16.3048 26.2545 16.7774 26.7271C17.25 27.1997 17.5155 27.8406 17.5155 28.509ZM16.9605 37.554C17.422 37.554 17.8645 37.3707 18.1909 37.0444C18.5172 36.718 18.7005 36.2755 18.7005 35.814C18.7005 35.3525 18.5172 34.9099 18.1909 34.5836C17.8645 34.2573 17.422 34.074 16.9605 34.074C16.499 34.074 16.0564 34.2573 15.7301 34.5836C15.4038 34.9099 15.2205 35.3525 15.2205 35.814C15.2205 36.2755 15.4038 36.718 15.7301 37.0444C16.0564 37.3707 16.499 37.554 16.9605 37.554ZM38.4855 21.984C38.4855 22.4455 38.3022 22.888 37.9759 23.2144C37.6495 23.5407 37.207 23.724 36.7455 23.724C36.284 23.724 35.8414 23.5407 35.5151 23.2144C35.1888 22.888 35.0055 22.4455 35.0055 21.984C35.0055 21.5225 35.1888 21.0799 35.5151 20.7536C35.8414 20.4273 36.284 20.244 36.7455 20.244C37.207 20.244 37.6495 20.4273 37.9759 20.7536C38.3022 21.0799 38.4855 21.5225 38.4855 21.984Z" fill="#FAFAFA"/>
<path d="M35.526 3.03149C32.1558 1.44422 28.3386 1.078 24.7281 1.99553C21.1177 2.91307 17.9385 5.05729 15.735 8.06099L7.87499 18.771C1.39049 27.603 4.59299 40.161 14.505 44.8215C23.256 48.9405 33.663 45.1305 37.716 36.369C38.9258 33.758 40.1323 31.1455 41.3355 28.5315L43.281 24.306C46.971 16.296 43.5135 6.80099 35.526 3.03149ZM18.1545 9.83549C19.9461 7.39359 22.5307 5.65034 25.466 4.90414C28.4013 4.15793 31.5047 4.45518 34.245 5.74499C40.7475 8.81399 43.5585 16.539 40.5585 23.0505L38.613 27.2745V27.2775C37.638 29.3925 37.6155 29.4435 34.9935 35.1075C31.638 42.366 23.0235 45.5145 15.7845 42.1065C7.57799 38.247 4.92899 27.8535 10.2945 20.5455L18.1545 9.83549Z" fill="#FAFAFA"/>
</svg>
