<svg width="48" height="48" viewBox="0 0 48 48" fill="none" xmlns="http://www.w3.org/2000/svg">
<path d="M38.025 5.025L37.95 5.1C36.975 6.0375 35.775 6.675 35.2125 7.4625C34.65 8.25 33.75 9.675 32.6625 10.9125C31.575 12.15 29.8875 14.1375 29.8875 14.1375C29.8875 14.1375 28.95 14.3625 28.6125 15.1125C28.275 15.8625 27.9375 16.65 27.1125 17.4C26.2875 18.15 23.325 21.15 22.275 21.8625C21.225 22.575 19.6875 22.8 19.275 23.4C18.8625 24 18.1875 24.75 17.1 25.4625C16.0125 26.175 13.3125 28.2375 12.075 28.7625C10.8375 29.2875 10.2375 29.4375 9.67503 30.075C9.11253 30.7125 6.75003 32.5125 5.55003 33.375C4.35003 34.2375 1.50003 36.9 1.16253 38.4C0.82503 39.9 0.712529 41.925 2.66253 43.35C4.61253 44.775 7.98753 45.2625 11.85 44.7C15.7125 44.1375 15.1875 44.175 16.5 43.5375C17.8125 42.9 20.55 41.6625 22.35 40.7625C24.15 39.8625 25.35 38.55 26.325 38.175C27.3 37.8 28.2 37.5 28.6125 36.825C29.025 36.15 30.4125 35.025 31.3125 34.1625C32.2125 33.3 34.0875 31.125 35.0625 30.6375C36.0375 30.15 37.0875 29.4375 37.35 28.6875C37.6125 27.9375 38.475 27 39.7875 25.65C41.1 24.3 43.8 20.25 44.625 18.975C45.45 17.7 45.3375 17.2875 45.7875 16.725C46.2375 16.1625 46.725 15.5625 46.6125 14.475C46.5 13.3875 47.2875 9.825 46.8375 8.0625C46.3875 6.3 45.15 3.1875 42.9375 3.15C40.725 3.1125 38.8125 4.125 38.025 5.025Z" fill="#F8F8F8"/>
</svg>
