<svg width="48" height="48" viewBox="0 0 48 48" fill="none" xmlns="http://www.w3.org/2000/svg">
<path d="M37.6969 2.73843C37.2281 2.73843 36.8062 2.7675 36.45 2.82C34.6687 3.08625 33.6844 3.77343 32.8031 4.66312C32.2875 5.18531 31.8187 5.79281 31.2844 6.40593C33.15 6.60562 34.6125 6.63187 36.8062 5.92781L37.9406 5.56687L37.9125 6.74906C37.9031 7.02093 37.8844 7.54593 37.9125 8.00812C37.9219 8.1825 37.9406 8.30062 37.9687 8.4075C40.0594 8.90531 42.5906 8.69718 44.6344 7.55062C44.8312 6.55968 44.6812 5.83312 44.3062 5.23031C43.8937 4.56 43.1719 4.00781 42.2531 3.59906C40.875 2.98687 39.0937 2.73843 37.6969 2.73843ZM36.225 7.84593C35.1562 8.10281 34.2 8.19937 33.2719 8.205C32.2125 9.88125 31.1344 11.5125 30 13.1062C30.6656 12.6656 31.4719 12.4031 32.325 12.4031C33.2906 12.4031 34.1812 12.7312 34.8937 13.2844C35.5031 12.0281 36.0562 10.7531 36.5437 9.44062C36.4594 9.29812 36.4125 9.14812 36.375 9.02906C36.2812 8.71968 36.2437 8.41781 36.225 8.11593C36.2156 8.02125 36.225 7.93968 36.225 7.84593ZM38.0531 10.1625C34.1344 20.5781 26.4656 28.9969 14.7 37.6687L14.6812 37.6875L14.6531 37.7062C11.2969 39.8344 9.76874 41.3062 9.07405 42.4781C8.5153 43.4062 8.41593 44.2031 8.34186 45.225C10.5 45.3937 13.3687 44.9906 16.1156 44.1937C19.1906 43.2937 22.1531 41.9156 23.8875 40.5C34.4719 31.5187 38.4094 22.0219 42.1594 10.2C40.7719 10.4437 39.3656 10.4156 38.0531 10.1625ZM32.325 14.0906C30.9187 14.0906 29.8031 15.2062 29.8031 16.6125C29.8031 17.7375 30.5156 18.675 31.5281 19.0125C32.475 17.6437 33.3281 16.2469 34.1062 14.8125C33.6469 14.3625 33.0187 14.0906 32.325 14.0906ZM28.2844 15.4406C27.2812 16.7531 26.2219 18.0469 25.1062 19.3125C25.7719 18.9 26.55 18.6656 27.375 18.6656C27.8719 18.6656 28.3594 18.75 28.8 18.9094C28.3687 18.2437 28.1156 17.4562 28.1156 16.6125C28.1156 16.2094 28.1719 15.8156 28.2844 15.4406ZM27.375 20.3531C25.8937 20.3531 24.7125 21.5344 24.7125 23.0156C24.7125 24.1031 25.35 25.0312 26.2781 25.4437C27.4781 24.1687 28.5937 22.8844 29.625 21.5812C29.1562 20.8406 28.3219 20.3531 27.375 20.3531ZM23.4844 21.075C22.2 22.425 20.8219 23.7469 19.3312 25.05C19.9219 24.7781 20.5781 24.6187 21.2719 24.6187C22.1531 24.6187 22.9781 24.8719 23.6812 25.3031C23.2687 24.6375 23.025 23.85 23.025 23.0156C23.025 22.3219 23.1937 21.6656 23.4844 21.075ZM21.2719 26.3062C19.6594 26.3062 18.3656 27.6 18.3656 29.2125C18.3656 30.225 18.8812 31.1156 19.6594 31.6312C21.15 30.3844 22.5469 29.1375 23.8594 27.8812C23.3719 26.9437 22.4062 26.3062 21.2719 26.3062ZM17.5031 26.5969C16.0312 27.7875 14.4562 28.9687 12.7594 30.1312C13.3312 29.8687 13.9594 29.7281 14.625 29.7281C15.4125 29.7281 16.1531 29.925 16.8094 30.2812C16.725 29.9344 16.6781 29.5781 16.6781 29.2125C16.6781 28.2375 16.9781 27.3375 17.5031 26.5969ZM11.475 30.9844C10.6125 31.5469 9.72186 32.1094 8.79374 32.6719L8.78436 32.6812H8.77499C7.66967 33.3094 6.72561 34.3687 5.94561 35.6156C6.64592 35.0344 7.54217 34.6875 8.51624 34.6875C9.07124 34.6875 9.59999 34.8 10.0781 35.0062C10.05 34.7812 10.0312 34.5562 10.0312 34.3219C10.0312 33.0094 10.5844 31.8281 11.475 30.9844ZM14.625 31.4156C13.0125 31.4156 11.7187 32.7094 11.7187 34.3219C11.7187 35.3437 12.2344 36.2344 13.0219 36.75C13.2469 36.6094 13.4719 36.4594 13.7062 36.3094C14.9906 35.3625 16.2281 34.4156 17.4094 33.4781C17.0437 32.2781 15.9469 31.4156 14.625 31.4156ZM8.51624 36.3844C7.20374 36.3844 6.15843 37.425 6.15843 38.7375C6.15843 39.8719 6.94405 40.8094 8.00718 41.0344C8.62686 40.1906 9.52499 39.3 10.8375 38.2969C10.6312 37.2 9.67499 36.3844 8.51624 36.3844ZM4.4728 38.6437C3.89061 40.1719 3.51093 41.6812 3.27655 42.8437C4.37249 43.0031 5.67561 42.975 7.06686 42.8062C7.09686 42.7219 7.12874 42.6375 7.16249 42.5531C5.5978 41.9906 4.47092 40.4812 4.47092 38.7375V38.6437H4.4728Z" fill="#F8F8F8"/>
</svg>
