<svg width="171" height="171" viewBox="0 0 171 171" fill="none" xmlns="http://www.w3.org/2000/svg">
<path d="M154.969 40.0781H142.277L155.309 27.0461C156.055 26.3004 156.646 25.4153 157.05 24.4411C157.454 23.4669 157.661 22.4228 157.661 21.3683C157.661 20.3139 157.454 19.2697 157.05 18.2956C156.646 17.3214 156.055 16.4362 155.309 15.6906C154.564 14.945 153.679 14.3535 152.704 13.95C151.73 13.5465 150.686 13.3388 149.632 13.3388C148.577 13.3388 147.533 13.5465 146.559 13.95C145.585 14.3535 144.7 14.945 143.954 15.6906L130.922 28.7227V16.0312C130.922 13.9054 130.077 11.8666 128.574 10.3633C127.071 8.86013 125.032 8.01563 122.906 8.01562C120.78 8.01563 118.742 8.86013 117.238 10.3633C115.735 11.8666 114.891 13.9054 114.891 16.0312V33.3984C106.488 29.6095 97.1318 28.4666 88.0643 30.1214C78.9969 31.7762 70.6474 36.1505 64.125 42.6632C37.0389 69.255 16.8194 131.59 14.5484 138.784C13.6299 140.818 13.2357 143.05 13.4019 145.276C13.5681 147.502 14.2893 149.65 15.4997 151.526C16.71 153.401 18.371 154.943 20.3308 156.011C22.2905 157.08 24.4867 157.64 26.7187 157.641C28.6168 157.637 30.4927 157.232 32.2228 156.452C37.3261 154.835 70.1567 144.201 98.2916 128.517L98.6523 128.317C110.075 121.924 120.695 114.697 128.337 106.942C134.863 100.414 139.246 92.0525 140.901 82.9713C142.556 73.89 141.405 64.52 137.602 56.1094H154.969C157.095 56.1094 159.133 55.2649 160.637 53.7617C162.14 52.2584 162.984 50.2196 162.984 48.0938C162.984 45.9679 162.14 43.9291 160.637 42.4258C159.133 40.9226 157.095 40.0781 154.969 40.0781ZM116.968 95.5997L116.908 95.6598C111.491 101.191 104.143 106.481 95.9804 111.37L80.4769 95.8669C78.971 94.361 76.9287 93.5151 74.7991 93.5151C72.6696 93.5151 70.6272 94.361 69.1214 95.8669C67.6156 97.3727 66.7696 99.415 66.7696 101.545C66.7696 103.674 67.6156 105.717 69.1214 107.222L81.2918 119.393C61.059 129.526 39.7909 137.04 31.0205 139.98C35.5426 126.473 50.9193 83.3358 69.9898 59.997L90.4964 80.5036C92.0022 82.0094 94.0446 82.8554 96.1741 82.8554C98.3037 82.8554 100.346 82.0094 101.852 80.5036C103.358 78.9978 104.204 76.9554 104.204 74.8259C104.204 72.6963 103.358 70.6539 101.852 69.1481L81.8529 49.1491C88.0478 45.682 95.2884 44.5743 102.237 46.0307C109.185 47.4872 115.371 51.4093 119.652 57.0724C123.933 62.7355 126.02 69.7568 125.526 76.8388C125.033 83.9208 121.993 90.5849 116.968 95.5997Z" fill="#FF8C8C" fill-opacity="0.1"/>
</svg>
