<svg width="48" height="48" viewBox="0 0 48 48" fill="none" xmlns="http://www.w3.org/2000/svg">
<path d="M10.942 6.84001C10.8572 8.2593 11.0654 9.68085 11.5536 11.0162C12.0419 12.3516 12.7997 13.5721 13.78 14.602C11.8747 15.1483 10.1689 16.2358 8.86956 17.7325C7.57021 19.2292 6.73317 21.0709 6.45998 23.034C5.80121 27.7451 6.76767 32.54 9.19998 36.628L9.89998 37.808C9.92651 37.8514 9.95521 37.8935 9.98598 37.934L12.818 41.746C13.4178 42.5539 14.1865 43.2214 15.0706 43.702C15.9547 44.1825 16.9329 44.4646 17.9371 44.5286C18.9414 44.5925 19.9474 44.4368 20.8854 44.0723C21.8233 43.7078 22.6705 43.1433 23.368 42.418C23.4495 42.3332 23.5474 42.2657 23.6556 42.2196C23.7639 42.1736 23.8803 42.1498 23.998 42.1498C24.1156 42.1498 24.2321 42.1736 24.3403 42.2196C24.4486 42.2657 24.5464 42.3332 24.628 42.418C25.3255 43.1433 26.1727 43.7078 27.1106 44.0723C28.0485 44.4368 29.0546 44.5925 30.0588 44.5286C31.063 44.4646 32.0412 44.1825 32.9253 43.702C33.8094 43.2214 34.5781 42.5539 35.178 41.746L38.01 37.932C38.0401 37.8915 38.0681 37.8494 38.094 37.806L38.796 36.626C41.2295 32.5398 42.198 27.7465 41.542 23.036C41.3483 21.648 40.8719 20.3146 40.142 19.1182C39.4122 17.9218 38.4446 16.888 37.2991 16.0807C36.1536 15.2734 34.8545 14.7098 33.4824 14.4248C32.1103 14.1399 30.6942 14.1396 29.322 14.424L25.52 15.212H25.514C25.574 13.652 25.818 11.972 26.296 10.536C26.876 8.80001 27.68 7.75601 28.576 7.38401C28.9433 7.23072 29.2347 6.93778 29.386 6.56965C29.5374 6.20152 29.5363 5.78834 29.383 5.42101C29.2297 5.05369 28.9367 4.76231 28.5686 4.61096C28.2005 4.45962 27.7873 4.46072 27.42 4.61401C25.316 5.49201 24.12 7.57401 23.45 9.58601L23.358 9.87001C22.8654 8.91832 22.2293 8.04813 21.472 7.29001C20.4347 6.2516 19.1887 5.44538 17.8165 4.92475C16.4442 4.40412 14.977 4.18095 13.512 4.27001C12.8434 4.3085 12.2122 4.59103 11.7381 5.06401C11.264 5.53699 10.98 6.16753 10.94 6.83601M16.792 22.466C16.098 22.604 15.462 23.092 15.064 24.022C14.658 24.97 14.514 26.376 14.952 28.13C15.042 28.5136 14.9775 28.9173 14.7724 29.2537C14.5672 29.5901 14.238 29.8323 13.8557 29.9279C13.4735 30.0236 13.0689 29.9649 12.7295 29.7647C12.3902 29.5645 12.1432 29.2388 12.042 28.858C11.482 26.614 11.588 24.518 12.306 22.84C13.032 21.146 14.396 19.884 16.204 19.524C16.3999 19.4778 16.6032 19.4714 16.8016 19.5054C17.0001 19.5393 17.1896 19.6129 17.359 19.7217C17.5285 19.8305 17.6742 19.9722 17.7877 20.1385C17.9012 20.3048 17.98 20.4923 18.0195 20.6897C18.0589 20.8871 18.0583 21.0905 18.0175 21.2876C17.9767 21.4848 17.8967 21.6717 17.7822 21.8373C17.6676 22.0029 17.5209 22.1437 17.3508 22.2514C17.1807 22.359 16.9906 22.4333 16.792 22.466Z" fill="#F8F8F8"/>
</svg>
