<svg width="24" height="24" viewBox="0 0 24 24" fill="none" xmlns="http://www.w3.org/2000/svg">
<path d="M21.75 5.625H19.9687L21.7978 3.79594C21.9024 3.69129 21.9854 3.56706 22.0421 3.43033C22.0987 3.2936 22.1279 3.14706 22.1279 2.99906C22.1279 2.85107 22.0987 2.70452 22.0421 2.5678C21.9854 2.43107 21.9024 2.30683 21.7978 2.20219C21.6931 2.09754 21.5689 2.01453 21.4322 1.9579C21.2954 1.90126 21.1489 1.87211 21.0009 1.87211C20.8529 1.87211 20.7064 1.90126 20.5696 1.9579C20.4329 2.01453 20.3087 2.09754 20.204 2.20219L18.375 4.03125V2.25C18.375 1.95163 18.2564 1.66548 18.0455 1.4545C17.8345 1.24353 17.5483 1.125 17.25 1.125C16.9516 1.125 16.6654 1.24353 16.4545 1.4545C16.2435 1.66548 16.125 1.95163 16.125 2.25V4.6875C14.9457 4.15572 13.6325 3.99531 12.3599 4.22756C11.0872 4.45982 9.91539 5.07375 8.99996 5.98781C5.1984 9.72 2.36059 18.4688 2.04184 19.4784C1.91293 19.7639 1.85761 20.0772 1.88094 20.3896C1.90426 20.702 2.00548 21.0036 2.17536 21.2668C2.34523 21.53 2.57835 21.7464 2.8534 21.8963C3.12846 22.0463 3.4367 22.1249 3.74996 22.125C4.01636 22.1245 4.27964 22.0677 4.52246 21.9581C5.23871 21.7313 9.84653 20.2387 13.7953 18.0375L13.8459 18.0094C15.449 17.1122 16.9397 16.0978 18.0122 15.0094C18.9282 14.0932 19.5433 12.9197 19.7756 11.6451C20.0079 10.3705 19.8463 9.05544 19.3125 7.875H21.75C22.0483 7.875 22.3345 7.75647 22.5455 7.5455C22.7564 7.33452 22.875 7.04837 22.875 6.75C22.875 6.45163 22.7564 6.16548 22.5455 5.9545C22.3345 5.74353 22.0483 5.625 21.75 5.625ZM16.4165 13.4175L16.4081 13.4259C15.6478 14.2022 14.6165 14.9447 13.4709 15.6309L11.295 13.455C11.0836 13.2437 10.797 13.1249 10.4981 13.1249C10.1992 13.1249 9.91256 13.2437 9.70122 13.455C9.48987 13.6663 9.37114 13.953 9.37114 14.2519C9.37114 14.5508 9.48987 14.8374 9.70122 15.0488L11.4093 16.7569C8.56965 18.1791 5.58465 19.2337 4.35371 19.6462C4.9884 17.7506 7.14653 11.6962 9.82309 8.42062L12.7012 11.2987C12.9126 11.5101 13.1992 11.6288 13.4981 11.6288C13.797 11.6288 14.0836 11.5101 14.295 11.2987C14.5063 11.0874 14.625 10.8008 14.625 10.5019C14.625 10.203 14.5063 9.91634 14.295 9.705L11.4881 6.89813C12.3576 6.41151 13.3738 6.25604 14.349 6.46045C15.3241 6.66486 16.1924 7.21534 16.7932 8.01016C17.3941 8.80498 17.687 9.79042 17.6177 10.7844C17.5485 11.7784 17.1218 12.7137 16.4165 13.4175Z" fill="white"/>
</svg>
