<svg width="48" height="48" viewBox="0 0 48 48" fill="none" xmlns="http://www.w3.org/2000/svg">
<path d="M20.24 44C23.1529 43.7503 25.9348 42.6776 28.2613 40.907C30.5878 39.1365 32.363 36.741 33.38 34C34.1688 31.9573 34.4834 29.762 34.3 27.58C34.2375 26.6291 34.3842 25.6761 34.7297 24.7881C35.0753 23.9 35.6113 23.0985 36.3 22.44L37.52 21.22C38.7085 20.0336 39.4812 18.4946 39.7227 16.8327C39.9642 15.1709 39.6616 13.4756 38.86 12L43.42 7.43999L40.58 4.57999L36 9.09999C34.5412 8.22551 32.8324 7.86278 31.1442 8.06928C29.456 8.27578 27.885 9.03969 26.68 10.24L25.18 11.74C24.5358 12.4198 23.7512 12.9509 22.8807 13.2963C22.0103 13.6417 21.075 13.7931 20.14 13.74C17.8671 13.5779 15.5887 13.969 13.5 14.88C10.8289 15.9948 8.52331 17.8352 6.84432 20.1929C5.16534 22.5505 4.18003 25.3312 3.99999 28.22C3.91014 30.3558 4.2724 32.4864 5.06304 34.4725C5.85368 36.4586 7.05488 38.2553 8.58799 39.7449C10.1211 41.2346 11.9516 42.3837 13.9595 43.117C15.9675 43.8502 18.1077 44.1511 20.24 44ZM19 18.5V21.5C17.0109 21.5 15.1032 22.2902 13.6967 23.6967C12.2902 25.1032 11.5 27.0109 11.5 29H8.49999C8.50527 26.2168 9.61322 23.5492 11.5812 21.5812C13.5492 19.6132 16.2168 18.5053 19 18.5Z" fill="#F8F8F8"/>
</svg>
