<svg width="32" height="32" viewBox="0 0 32 32" fill="none" xmlns="http://www.w3.org/2000/svg">
<path d="M7.80002 13.034L27.5 4.5L19.016 24.076L26.41 5.59L7.80002 13.034ZM3.76802 14.508C3.54876 14.479 3.34529 14.3782 3.18945 14.2212C3.03362 14.0643 2.9342 13.8601 2.90677 13.6407C2.87934 13.4212 2.92543 13.1988 3.03785 13.0084C3.15026 12.8179 3.32264 12.6701 3.52802 12.588L27.834 2.868C28.0157 2.79526 28.2148 2.77745 28.4066 2.81679C28.5983 2.85612 28.7743 2.95087 28.9127 3.08928C29.0512 3.22769 29.1459 3.40369 29.1852 3.59544C29.2246 3.78719 29.2068 3.98627 29.134 4.168L19.436 28.408C19.3537 28.6135 19.2055 28.7858 19.0147 28.898C18.8239 29.0102 18.6013 29.0559 18.3817 29.028C18.1622 29.0001 17.958 28.9001 17.8014 28.7438C17.6447 28.5874 17.5444 28.3835 17.516 28.164L16 16.156L3.76802 14.508Z" fill="#FF5E5E"/>
</svg>
