<svg width="48" height="48" viewBox="0 0 48 48" fill="none" xmlns="http://www.w3.org/2000/svg">
<g clip-path="url(#clip0_48_1036)">
<path d="M35.9526 7.37238L35.0488 7.75173C33.6625 8.33193 32.8424 9.08786 32.1367 9.85215C32.7838 10.1534 33.4059 10.5383 33.9972 10.9986C35.3166 12.0725 36.2064 13.2329 36.9038 14.7727L37.9526 17.0739L35.4421 16.7643C33.643 16.5467 32.4379 16.9484 31.2692 17.3361C30.7922 17.4979 30.304 17.6597 29.7936 17.7713C29.8271 17.9833 29.8522 18.198 29.8689 18.41C29.9805 19.682 29.8103 20.9735 29.3696 22.2482C28.781 23.8466 27.9777 25.0628 26.7476 26.2231L25.9191 27.0014L24.9791 26.3654C23.5816 25.4142 22.5914 24.3403 21.7685 22.8814C21.219 21.8549 20.8647 20.8061 20.7141 19.7294C20.1395 19.8298 19.5704 19.8494 19.0126 19.8717C17.7852 19.9191 16.5132 19.9665 14.9093 20.8089L12.6695 21.9888L12.834 19.4644C12.9428 17.7796 13.364 16.3821 14.2064 14.9316C14.7169 14.0893 15.3166 13.3584 16.0084 12.7448C15.8494 12.6053 15.6932 12.4602 15.5397 12.318C14.636 11.484 13.7015 10.6192 11.9693 10.0809L9.55091 9.32775L11.0321 8.0251C2.66946 10.5439 0 17.8996 0 26.1562C0 37.721 10.7448 47.0962 24 47.0962C37.2524 47.0962 48 37.721 48 26.1562C48 17.6318 44.9233 9.53416 35.9526 7.37238Z" fill="white"/>
<path d="M17.6652 13.1967C16.7866 13.8075 16.0334 14.6053 15.4281 15.6067C14.834 16.6276 14.3542 17.8103 14.2454 19.5174C17.7963 17.6513 20.0083 19.0879 22.0808 17.6653C22.0362 18.1116 22.0251 18.5523 22.0641 18.9958C22.1394 20.0642 22.4463 21.1158 23.0013 22.1478C23.5815 23.1771 24.3542 24.1897 25.774 25.152C27.0181 23.9777 27.6206 22.8536 28.0306 21.7434C28.4156 20.6388 28.5523 19.5537 28.4546 18.4854C28.396 17.7908 28.2371 17.1046 27.9888 16.4268C30.2343 16.7503 31.8298 14.8563 35.6122 15.3222C34.9037 13.7629 34.0362 12.8257 33.1213 12.0809C32.2008 11.3584 31.2161 10.8815 30.1757 10.622C29.9609 10.5662 29.7489 10.5272 29.5285 10.4937C30.8396 9.3947 31.682 7.58996 34.502 6.41283C33.1101 5.41144 31.8912 5.0265 30.728 4.83682C29.5676 4.66667 28.4769 4.73919 27.4449 5.03208C26.4128 5.3166 25.4365 5.8159 24.5271 6.55509C24.1785 6.85077 23.841 7.19107 23.5146 7.56485C22.2622 3.51743 20.7838 0.287308 20.6499 0L19.682 0.449093C19.7126 0.518829 21.258 3.88285 22.5355 8.04742C22.4686 7.98605 22.396 7.92748 22.3235 7.87727C21.35 7.22734 20.3319 6.82287 19.2747 6.63877C18.2231 6.44909 17.1241 6.47978 15.9888 6.75872C14.8479 7.06276 13.6736 7.55927 12.3849 8.68898C15.8019 9.75174 16.6108 11.9163 18.4937 12.6974C18.2092 12.8508 17.9302 13.0126 17.6652 13.1967ZM24.767 11.1353C24.781 11.1353 24.7949 11.1437 24.8061 11.1464C24.7559 11.1688 24.7029 11.1967 24.6527 11.2218C24.6889 11.1939 24.728 11.166 24.767 11.1353Z" fill="white"/>
</g>
<defs>
<clipPath id="clip0_48_1036">
<rect width="48" height="48" fill="white"/>
</clipPath>
</defs>
</svg>
